<svg width="360" height="117" viewBox="0 0 360 117" fill="none" xmlns="http://www.w3.org/2000/svg">
<g clip-path="url(#clip0_2_94)">
<path fill-rule="evenodd" clip-rule="evenodd" d="M276 118H236.023C236.023 87.3354 211.165 62.4767 180.5 62.4767C149.835 62.4767 124.977 87.3354 124.977 118H85C85 65.2568 127.757 22.5 180.5 22.5C233.243 22.5 276 65.2568 276 118Z" fill="#EEEEEE"/>
<path fill-rule="evenodd" clip-rule="evenodd" d="M360 0H0V116H90C90 66.2944 130.294 26 180 26C229.706 26 270 66.2944 270 116H360V0Z" fill="#BC0C21"/>
<path fill-rule="evenodd" clip-rule="evenodd" d="M266 117H230C230 89.3858 207.614 67 180 67C152.386 67 130 89.3858 130 117H94C94 69.5035 132.504 31 180 31C227.496 31 266 69.5035 266 117Z" fill="#312729"/>
<path fill-rule="evenodd" clip-rule="evenodd" d="M0 30C16.5685 30 30 16.5685 30 0C30 -16.5685 16.5685 -30 0 -30C-16.5685 -30 -30 -16.5685 -30 0C-30 16.5685 -16.5685 30 0 30ZM0 32C17.6731 32 32 17.6731 32 0C32 -17.6731 17.6731 -32 0 -32C-17.6731 -32 -32 -17.6731 -32 0C-32 17.6731 -17.6731 32 0 32Z" fill="black"/>
<path fill-rule="evenodd" clip-rule="evenodd" d="M0 80C44.1828 80 80 44.1828 80 0C80 -44.1828 44.1828 -80 0 -80C-44.1828 -80 -80 -44.1828 -80 0C-80 44.1828 -44.1828 80 0 80ZM0 82C45.2873 82 82 45.2873 82 0C82 -45.2873 45.2873 -82 0 -82C-45.2873 -82 -82 -45.2873 -82 0C-82 45.2873 -45.2873 82 0 82Z" fill="black"/>
<path fill-rule="evenodd" clip-rule="evenodd" d="M360 30C376.569 30 390 16.5685 390 0C390 -16.5685 376.569 -30 360 -30C343.431 -30 330 -16.5685 330 0C330 16.5685 343.431 30 360 30ZM360 32C377.673 32 392 17.6731 392 0C392 -17.6731 377.673 -32 360 -32C342.327 -32 328 -17.6731 328 0C328 17.6731 342.327 32 360 32Z" fill="black"/>
<path fill-rule="evenodd" clip-rule="evenodd" d="M360 80C404.183 80 440 44.1828 440 0C440 -44.1828 404.183 -80 360 -80C315.817 -80 280 -44.1828 280 0C280 44.1828 315.817 80 360 80ZM360 82C405.287 82 442 45.2873 442 0C442 -45.2873 405.287 -82 360 -82C314.713 -82 278 -45.2873 278 0C278 45.2873 314.713 82 360 82Z" fill="black"/>
<path fill-rule="evenodd" clip-rule="evenodd" d="M0 115V117H90C90 67.2944 130.294 27 180 27C229.706 27 270 67.2944 270 117H360V115H271.979C270.915 65.1133 230.142 25 180 25C129.858 25 89.0853 65.1133 88.0213 115H0ZM89.0002 116L89.0211 115.022C89.0141 115.348 89.0089 115.674 89.0054 116H89.0002ZM271 116H270.995C270.991 115.679 270.986 115.358 270.979 115.038L271 116Z" fill="black"/>
</g>
<defs>
<clipPath id="clip0_2_94">
<rect width="360" height="117" fill="white"/>
</clipPath>
</defs>
</svg>
