<svg width="1920" height="1080" viewBox="0 0 1920 1080" fill="none" xmlns="http://www.w3.org/2000/svg">
<g clip-path="url(#clip0_11_49)">
<path d="M1997.16 815.763C2023.23 874.333 2024.95 940.859 2001.97 1000.7C1978.98 1060.55 1933.16 1108.81 1874.59 1134.87C1845.59 1147.78 1814.33 1154.84 1782.6 1155.66C1750.87 1156.49 1719.29 1151.06 1689.65 1139.67C1660.02 1128.29 1632.92 1111.18 1609.9 1089.33C1586.88 1067.47 1568.39 1041.3 1555.49 1012.3C1542.58 983.296 1535.51 952.038 1534.69 920.306C1533.87 888.574 1539.3 856.991 1550.68 827.359C1562.06 797.728 1579.17 770.627 1601.03 747.606C1622.88 724.586 1649.06 706.097 1678.06 693.192C1736.63 667.13 1803.15 665.402 1863 688.389C1922.84 711.375 1971.1 757.193 1997.16 815.763V815.763Z" fill="#FF6262" stroke="black" stroke-width="22.125"/>
<path fill-rule="evenodd" clip-rule="evenodd" d="M1999.94 831.804C1985.93 856.042 1971.07 874.861 1949.4 896.833C1870.17 976.63 1752.18 1028.58 1640.16 1032.98C1613.25 1033.96 1588.39 1032.04 1564.07 1027.48C1623.63 1140.29 1759.33 1187.75 1875.89 1135.9C2004.81 1072.34 2036.27 934.696 1999.93 831.794L1999.94 831.804Z" fill="white" stroke="black" stroke-width="22.125"/>
<path fill-rule="evenodd" clip-rule="evenodd" d="M1988.24 808.16L1981.63 820.942C1968.76 843.189 1954.66 859.964 1933.68 881.249C1858.83 956.636 1745.15 1006.69 1639.37 1010.88L1639.29 1010.91C1617.06 1011.71 1595.62 1010.48 1575.5 1007.32C1574.98 1007.24 1570.97 1006.14 1566 1005.21L1561.85 1041.72C1562.89 1041.91 1563.06 1050.17 1568.66 1051.04C1591.82 1054.68 1616.08 1056.03 1641 1055.13L1641.04 1055.12C1759.26 1050.46 1881.52 996.609 1965.1 912.418L1965.14 912.4L1965.18 912.382C1987.48 889.752 2004.85 869.241 2019.99 843.055L2017.61 839.764L2007.37 823.739L1988.25 808.176L1988.24 808.16Z" fill="black"/>
<path d="M1855.48 957.17C1861.2 970.037 1861.58 984.65 1856.53 997.797C1851.48 1010.94 1841.42 1021.55 1828.55 1027.27C1822.18 1030.11 1815.31 1031.66 1808.34 1031.84C1801.37 1032.02 1794.43 1030.83 1787.92 1028.33C1781.41 1025.83 1775.46 1022.07 1770.4 1017.27C1765.35 1012.47 1761.28 1006.72 1758.45 1000.34C1755.61 993.974 1754.06 987.107 1753.88 980.136C1753.7 973.165 1754.89 966.228 1757.39 959.718C1759.89 953.209 1763.65 947.255 1768.45 942.198C1773.25 937.141 1779 933.078 1785.38 930.243C1798.24 924.518 1812.86 924.14 1826 929.189C1839.15 934.239 1849.75 944.304 1855.48 957.17Z" fill="white" stroke="black" stroke-width="22.125"/>
</g>
<defs>
<clipPath id="clip0_11_49">
<rect width="1920" height="1080" fill="white"/>
</clipPath>
</defs>
</svg>
